<?xml version="1.0" encoding="iso-8859-1"?>
<!-- Generator: Adobe Illustrator 19.1.0, SVG Export Plug-In . SVG Version: 6.00 Build 0)  -->
<svg version="1.1" id="Capa_1" xmlns="http://www.w3.org/2000/svg" xmlns:xlink="http://www.w3.org/1999/xlink" x="0px" y="0px"
	 viewBox="0 0 65 65" style="enable-background:new 0 0 65 65;" xml:space="preserve">
<g>
	<g id="group-39svg">
		<path id="path-1_31_" style="fill:#FF917B;" d="M12,46.611H9.751C7.138,46.611,5,44.472,5,41.857v-3.251
			c0-4.422,3.582-8.006,8-8.006h44c4.418,0,8,3.584,8,8.006v3.597c0,2.425-1.982,4.408-4.404,4.408H59l0,0"/>
		<path id="path-2_31_" style="fill:#53ECF4;" d="M15.261,29.604c0-6.985,7.544-12.647,16.849-12.647
			c9.306,0,16.762,6.335,16.85,12.647l0,0"/>
		<path id="path-3_31_" style="fill:#EDC951;" d="M59.803,44.171c0,3.239-2.625,5.865-5.863,5.865c-3.237,0-5.862-2.626-5.862-5.865
			c0-3.241,2.625-5.867,5.862-5.867C57.178,38.304,59.803,40.93,59.803,44.171z"/>
		<path id="path-4_31_" style="fill:#EDC951;" d="M24.665,46.172c0,3.24-2.625,5.866-5.862,5.866c-3.238,0-5.863-2.626-5.863-5.866
			s2.625-5.867,5.863-5.867C22.04,40.305,24.665,42.932,24.665,46.172z"/>
		<path id="path-5_31_" d="M58.218,45.772c-0.828,0-1.5-0.673-1.5-1.501c0-0.83,0.672-1.501,1.5-1.501c0.44,0,1.782,0,1.782-2.568
			v-4.098c0-3.587-2.916-6.505-6.5-6.505h-44c-3.584,0-6.5,2.918-6.5,6.505v3.751c0,1.518,1.234,2.753,2.751,2.753H8
			c0.828,0,1.5,0.672,1.5,1.501c0,0.829-0.672,1.501-1.5,1.501H5.751C2.58,45.61,0,43.029,0,39.855v-3.751
			c0-5.242,4.262-9.507,9.5-9.507h44c5.238,0,9.5,4.265,9.5,9.507v4.098C63,43.586,61.123,45.772,58.218,45.772z"/>
		<path id="path-6_29_" d="M45,45.61H21c-0.828,0-1.5-0.672-1.5-1.501c0-0.829,0.672-1.501,1.5-1.501h24
			c0.828,0,1.5,0.672,1.5,1.501C46.5,44.938,45.828,45.61,45,45.61z"/>
		<path id="path-7_28_" d="M44.96,28.598c-0.819,0-1.488-0.906-1.5-1.728c-0.073-5.271-6.653-11.29-15.35-11.29
			c-8.464,0-15.349,4.938-15.349,11.083c0,0.829-0.672,1.47-1.5,1.47s-1.5-0.687-1.5-1.516c0-7.801,8.231-14.155,18.349-14.155
			c9.67,0,18.245,6.845,18.35,14.371c0.012,0.828-0.65,0.765-1.48,1.765C44.974,28.598,44.967,28.598,44.96,28.598z"/>
		<path id="path-8_26_" d="M51.94,52.538c-4.059,0-7.362-3.305-7.362-7.367s3.303-7.367,7.362-7.367c4.06,0,7.363,3.305,7.363,7.367
			S56,52.538,51.94,52.538z M51.94,40.806c-2.405,0-4.362,1.958-4.362,4.365s1.957,4.365,4.362,4.365
			c2.406,0,4.363-1.958,4.363-4.365S54.346,40.806,51.94,40.806z"/>
		<path id="path-9_22_" d="M14.803,51.538c-4.06,0-7.363-3.306-7.363-7.367c0-4.063,3.303-7.368,7.363-7.368
			c4.059,0,7.362,3.305,7.362,7.368C22.165,48.232,18.862,51.538,14.803,51.538z M14.803,39.805c-2.406,0-4.363,1.959-4.363,4.366
			s1.957,4.364,4.363,4.364c2.405,0,4.362-1.957,4.362-4.364S17.208,39.805,14.803,39.805z"/>
		<path id="path-10_18_" d="M27.5,29.099c-0.828,0-1.5-0.673-1.5-1.501V14.589c0-0.83,0.672-1.502,1.5-1.502s1.5,0.672,1.5,1.502
			v13.009C29,28.426,28.328,29.099,27.5,29.099z"/>
		<path id="path-11_17_" d="M61,35.603h-4c-0.828,0-1.5-0.672-1.5-1.501c0-0.829,0.672-1.501,1.5-1.501h4
			c0.828,0,1.5,0.672,1.5,1.501C62.5,34.931,61.828,35.603,61,35.603z"/>
	</g>
</g>
<g>
</g>
<g>
</g>
<g>
</g>
<g>
</g>
<g>
</g>
<g>
</g>
<g>
</g>
<g>
</g>
<g>
</g>
<g>
</g>
<g>
</g>
<g>
</g>
<g>
</g>
<g>
</g>
<g>
</g>
</svg>
