<?xml version="1.0" ?><!DOCTYPE svg  PUBLIC '-//W3C//DTD SVG 1.1//EN'  'http://www.w3.org/Graphics/SVG/1.1/DTD/svg11.dtd'><svg enable-background="new 0 0 128 128" id="Слой_1" version="1.1" viewBox="0 0 128 128" xml:space="preserve" xmlns="http://www.w3.org/2000/svg" xmlns:xlink="http://www.w3.org/1999/xlink"><path d="M86.1,46.7C87.9,43.2,89,39.2,89,35c0-13.8-11.2-25-25-25S39,21.2,39,35c0,0.6,0,1.2,0.1,1.7  C26.2,41.1,17,53.2,17,67.5C17,85.4,31.6,100,49.5,100h27c15.2,0,27.5-12.3,27.5-27.5C104,60.7,96.5,50.6,86.1,46.7z" fill="#A0C279"/><path d="M39,35c0,0.6,0,1.2,0.1,1.7C26.2,41.1,17,53.2,17,67.5C17,85.4,31.6,100,49.5,100h10  C41.6,100,27,85.4,27,67.5c0-14.3,9.2-26.4,22.1-30.8c0-0.6-0.1-1.1-0.1-1.7c0-12.1,8.6-22.2,20-24.5c-1.6-0.3-3.3-0.5-5-0.5  C50.2,10,39,21.2,39,35z" fill="#FFFFFF"/><path d="M60.5,125.5c0.8,0,1.5-0.7,1.5-1.5v-22.5h14.5c16,0,29-13,29-29c0-11.5-6.9-22-17.4-26.6  c1.5-3.4,2.4-7.2,2.4-10.9C90.5,20.4,78.6,8.5,64,8.5S37.5,20.4,37.5,35c0,0.2,0,0.5,0,0.7c-13.2,5-22,17.6-22,31.8  c0,18.7,15.3,34,34,34H59V124C59,124.8,59.7,125.5,60.5,125.5z M49.5,98.5c-17.1,0-31-13.9-31-31c0-13.3,8.5-25.1,21-29.4  c0.6-0.2,1.1-0.8,1-1.5c0-0.5-0.1-1.1-0.1-1.6C40.5,22,51,11.5,64,11.5S87.5,22,87.5,35c0,3.8-0.9,7.6-2.7,11  c-0.2,0.4-0.2,0.8-0.1,1.2c0.2,0.4,0.5,0.7,0.9,0.9c10.1,3.8,16.9,13.6,16.9,24.4c0,14.3-11.7,26-26,26H62v-9.9L81.2,79  c0.7-0.4,1-1.3,0.7-2c-0.4-0.7-1.3-1-2-0.7L62,85.2V45c0-0.8-0.7-1.5-1.5-1.5S59,44.2,59,45v20.2l-17.8-8.9c-0.7-0.4-1.6-0.1-2,0.7  c-0.4,0.7-0.1,1.6,0.7,2L59,68.6v29.9H49.5z" fill="#62355C"/></svg>