<?xml version="1.0" ?><svg data-name="Layer 1" id="Layer_1" viewBox="0 0 64 64" xmlns="http://www.w3.org/2000/svg" xmlns:xlink="http://www.w3.org/1999/xlink"><defs><style>.cls-1{fill:url(#linear-gradient);}.cls-2{fill:url(#linear-gradient-2);}.cls-3{fill:url(#linear-gradient-3);}.cls-4{fill:url(#linear-gradient-4);}.cls-5{fill:#fff;}</style><linearGradient gradientTransform="matrix(-1, 0, 0, 1, -526.2, 0)" gradientUnits="userSpaceOnUse" id="linear-gradient" x1="-548.53" x2="-567.27" y1="42.44" y2="18.16"><stop offset="0" stop-color="#cecece"/><stop offset="1" stop-color="#ababab"/></linearGradient><linearGradient gradientTransform="matrix(1, 0, 0, -1, 591.84, 68.79)" id="linear-gradient-2" x1="-541.43" x2="-570.92" xlink:href="#linear-gradient" y1="34.74" y2="26.31"/><linearGradient gradientTransform="matrix(0, 1, 1, 0, 57.06, 679.53)" gradientUnits="userSpaceOnUse" id="linear-gradient-3" x1="-646.21" x2="-635.89" y1="-44.11" y2="-28.42"><stop offset="0.02" stop-color="#bababa"/><stop offset="1" stop-color="#828282" stop-opacity="0"/></linearGradient><linearGradient gradientTransform="matrix(0, -1, -1, 0, 4.96, -611.97)" gradientUnits="userSpaceOnUse" id="linear-gradient-4" x1="-644.44" x2="-634.12" y1="-46.73" y2="-31.04"><stop offset="0.02" stop-color="#9c9c9c"/><stop offset="0.99" stop-color="#a1a1a1" stop-opacity="0"/></linearGradient></defs><title/><path class="cls-1" d="M26.26,10A15.54,15.54,0,0,1,40,18.29a12.22,12.22,0,1,1,6.15,22.77l-19.89.05a15.55,15.55,0,1,1,0-31.11Z"/><path class="cls-2" d="M38.38,55.79a15.54,15.54,0,0,1-13.75-8.29,12.22,12.22,0,1,1-6.15-22.77l19.89-.05a15.55,15.55,0,0,1,0,31.11Z"/><circle class="cls-3" cx="18.49" cy="36.96" r="12.22" transform="translate(-22.08 44.82) rotate(-74.39)"/><circle class="cls-4" cx="46.15" cy="28.83" r="12.22" transform="translate(5.97 65.53) rotate(-74.39)"/><path class="cls-5" d="M27.88,38.15a7.2,7.2,0,0,1-2.87.48c-3.86,0-5.85-2.4-5.85-5.58,0-3.81,2.72-5.93,6.09-5.93a6.58,6.58,0,0,1,2.75.5l-.51,2a5.43,5.43,0,0,0-2.12-.41,3.36,3.36,0,0,0-3.56,3.69,3.33,3.33,0,0,0,3.58,3.64,6.28,6.28,0,0,0,2.1-.36Z"/><path class="cls-5" d="M39.26,32.77c0,3.66-2.22,5.88-5.48,5.88s-5.25-2.5-5.25-5.68c0-3.35,2.14-5.85,5.43-5.85S39.26,29.69,39.26,32.77Zm-8.06.15c0,2.19,1,3.73,2.72,3.73S36.6,35,36.6,32.85c0-2-1-3.73-2.7-3.73S31.2,30.75,31.2,32.92Z"/><path class="cls-5" d="M40.53,40.63V39.53l1-.9c1.69-1.51,2.51-2.38,2.53-3.28,0-.63-.38-1.13-1.27-1.13a2.8,2.8,0,0,0-1.65.64l-.51-1.29a4.28,4.28,0,0,1,2.53-.8,2.4,2.4,0,0,1,2.71,2.42c0,1.29-.94,2.33-2.05,3.32l-.71.59v0H46v1.48Z"/></svg>