<?xml version="1.0" encoding="UTF-8" standalone="no"?>
<svg
   xmlns:dc="http://purl.org/dc/elements/1.1/"
   xmlns:cc="http://creativecommons.org/ns#"
   xmlns:rdf="http://www.w3.org/1999/02/22-rdf-syntax-ns#"
   xmlns:svg="http://www.w3.org/2000/svg"
   xmlns="http://www.w3.org/2000/svg"
   viewBox="0 0 853.33331 853.33331"
   height="853.33331"
   width="853.33331"
   xml:space="preserve"
   id="svg2"
   version="1.1"><metadata
     id="metadata8"><rdf:RDF><cc:Work
         rdf:about=""><dc:format>image/svg+xml</dc:format><dc:type
           rdf:resource="http://purl.org/dc/dcmitype/StillImage" /></cc:Work></rdf:RDF></metadata><defs
     id="defs6" /><g
     transform="matrix(1.3333333,0,0,-1.3333333,0,853.33333)"
     id="g10"><g
       transform="scale(0.1)"
       id="g12"><path
         id="path14"
         style="fill:#1b5065;fill-opacity:1;fill-rule:nonzero;stroke:none"
         d="m 3116.1,1639.04 v 3131.33 c 0,0 423.31,20.08 483.53,-207.42 0,0 298.68,66.91 178.23,-294.4 0,0 266.41,180.65 453.75,-127.12 0,0 317.22,40.13 290.46,-294.4 0,0 406.05,-356.82 2.98,-767.21 0,0 -402.38,-490.68 -884.12,-162.83 0,0 -102.29,-194.02 -338.67,-140.51 l 42.08,-1138.04 -228.24,0.6" /><path
         id="path16"
         style="fill:#1b5065;fill-opacity:1;fill-rule:nonzero;stroke:none"
         d="m 3146.47,1652.6 h -160.58 l 80.29,1169.13 c 0,0 -227.49,32.61 -354.61,153.04 0,0 -227.5,-29.41 -354.62,128.91 0,0 107.05,-82.75 234.18,-69.37 0,0 -224.62,202.62 -323.73,349.65 0,0 -305.21,4.79 -479.18,225.59 0,0 278.41,-217.95 452.38,-184.49 0,0 -171.36,137.62 -211.51,398.55 0,0 71.36,-188.4 131.57,-221.86 0,0 -71.35,221.86 -24.51,449.36 0,0 -57.97,-469.47 283.26,-757.18 0,0 -95.91,155 -42.39,402.55 0,0 -80.29,-454.98 454.98,-715.91 0,0 -227.48,140.5 -220.8,481.73 0,0 33.46,-224.12 120.44,-297.71 0,0 -71.36,173.96 -26.77,378.01 0,0 6.7,-575.41 368.01,-635.65 l 20.07,196.29 c 0,0 -200.73,252.01 -227.49,446.04 0,0 -401.46,260.95 -398.11,555.35 0,0 90.33,-194.02 150.55,-247.56 0,0 -66.91,180.64 -13.38,247.56 0,0 0,-381.37 240.86,-448.28 0,0 -194.03,347.93 -140.51,849.72 0,0 0,-254.23 73.61,-414.82 0,0 -20.07,260.94 113.74,488.44 0,0 -183.09,-575.41 42.28,-963.5 0,0 38.01,200.74 51.39,354.63 0,0 33.46,-214.12 -20.07,-448.3 0,0 13.39,-165.52 194.03,-359.56 L 3146.47,1652.6" /><path
         id="path18"
         style="fill:#1b5065;fill-opacity:1;fill-rule:nonzero;stroke:none"
         d="m 835.344,4191.52 c -5.403,0 -10.891,1.1 -16.145,3.42 -20.281,8.93 -29.511,32.64 -20.578,52.91 10.82,24.55 22.016,48.91 33.567,73.03 9.57,20.02 33.554,28.44 53.554,18.85 19.988,-9.57 28.43,-33.56 18.836,-53.56 -11.18,-23.34 -22,-46.91 -32.461,-70.68 -6.629,-15.02 -21.347,-23.97 -36.773,-23.97 z m -78.008,-199.35 c -4.34,0 -8.731,0.7 -13.066,2.17 -20.969,7.2 -32.102,30.05 -24.915,51.03 11.79,34.24 24.415,68.59 37.532,102.07 8.086,20.67 31.426,30.8 52.008,22.74 20.656,-8.07 30.839,-31.37 22.746,-52.02 -12.703,-32.44 -24.942,-65.7 -36.336,-98.92 -5.727,-16.62 -21.301,-27.07 -37.969,-27.07 z m -85.207,-309.46 c -2.742,0 -5.488,0.26 -8.262,0.86 -21.719,4.52 -35.625,25.8 -31.074,47.48 14.734,70.61 32.695,141.51 53.34,210.79 6.355,21.23 28.68,33.32 49.953,26.99 21.25,-6.33 33.316,-28.69 26.988,-49.96 -20.008,-67.11 -37.39,-135.82 -51.719,-204.22 -3.945,-18.95 -20.64,-31.94 -39.226,-31.94 z m -54.816,-531.54 c -22.157,0 -40.133,17.99 -40.133,40.16 0,145.1 11.968,290.76 35.562,432.89 3.637,21.87 24.184,36.62 46.184,33.01 21.855,-3.64 36.648,-24.3 33.015,-46.18 -22.871,-137.79 -34.468,-279 -34.468,-419.72 0,-22.17 -17.993,-40.16 -40.16,-40.16" /><path
         id="path20"
         style="fill:#1b5065;fill-opacity:1;fill-rule:nonzero;stroke:none"
         d="M 3200,579.109 C 1753.78,579.109 577.18,1762.6 577.18,3212.6 h 80.293 c 0,-1420 1140.577,-2553.178 2542.527,-2553.178 699.25,0 1351.02,272.707 1835.19,777.528 l 57.96,-52.91 C 4593.66,863.281 3921.34,579.109 3200,579.109" /><path
         id="path22"
         style="fill:#1b5065;fill-opacity:1;fill-rule:nonzero;stroke:none"
         d="m 4872.6,1493.75 379.07,128.63 -78.07,-392.61 z" /><path
         id="path24"
         style="fill:#1b5065;fill-opacity:1;fill-rule:nonzero;stroke:none"
         d="m 5747.73,2724.86 c -2.19,0 -4.38,0.2 -6.63,0.55 -21.85,3.63 -36.64,24.32 -33.01,46.19 22.84,137.7 34.44,278.91 34.44,419.73 0,22.15 17.99,40.13 40.16,40.13 22.16,0 40.13,-17.98 40.13,-40.13 0,-145.22 -11.93,-290.88 -35.54,-432.89 -3.27,-19.63 -20.28,-33.58 -39.55,-33.58 z m -72.29,-312.71 c -3.81,0 -7.66,0.53 -11.49,1.68 -21.25,6.33 -33.33,28.69 -27.01,49.94 20.02,67.11 37.41,135.82 51.73,204.22 4.54,21.76 25.92,35.74 47.49,31.09 21.72,-4.53 35.62,-25.8 31.08,-47.5 -14.75,-70.58 -32.7,-141.5 -53.35,-210.76 -5.21,-17.4 -21.17,-28.67 -38.45,-28.67 z m -69.71,-202.44 c -4.85,0 -9.79,0.88 -14.61,2.73 -20.64,8.09 -30.84,31.37 -22.78,52.01 12.91,32.99 25.15,66.29 36.36,98.95 7.2,20.94 30.06,31.97 51.03,24.92 20.97,-7.23 32.11,-30.06 24.92,-51.05 -11.61,-33.7 -24.23,-68.03 -37.51,-102.04 -6.2,-15.86 -21.35,-25.52 -37.41,-25.52 z m -68.96,-159.81 c -5.74,0 -11.56,1.23 -17.09,3.85 -20.05,9.43 -28.65,33.36 -19.19,53.42 9.36,19.86 18.5,39.86 27.37,60 8.99,20.31 32.72,29.43 52.92,20.56 20.3,-8.92 29.5,-32.63 20.57,-52.91 -9.17,-20.78 -18.59,-41.4 -28.25,-61.89 -6.86,-14.53 -21.28,-23.03 -36.33,-23.03" /><path
         id="path26"
         style="fill:#1b5065;fill-opacity:1;fill-rule:nonzero;stroke:none"
         d="m 5822.82,3212.6 h -80.29 c 0,1390 -1140.58,2531.88 -2542.53,2531.88 -698.33,0 -1349.49,-282.68 -1833.54,-786.36 l -57.89,52.96 c 499.31,519.6 1171.03,815.01 1891.43,815.01 1446.22,0 2622.82,-1173.49 2622.82,-2613.49" /><path
         id="path28"
         style="fill:#1b5065;fill-opacity:1;fill-rule:nonzero;stroke:none"
         d="m 1529.01,4890.51 -379.2,-128.28 78.46,392.54 z" /></g></g></svg>